# 3ds Max Wavefront OBJ Exporter v0.97b - (c)2007 guruware
# File Created: 25.02.2017 15:07:59

mtllib Fairy Wings.mtl

#
# object Plane02
#

v  7.3690 -54.2235 0.0000
v  73.3937 -27.6803 0.0000
v  19.0531 23.3318 -0.0000
v  0.0000 0.0000 -0.0000
v  127.7448 22.8793 -0.0000
v  15.6780 67.1529 -0.0000
v  150.3937 101.1968 -0.0000
v  26.1140 109.8366 -0.0000
v  181.5683 -10.3715 0.0000
v  214.8339 81.9372 -0.0000
v  239.3748 169.3080 -0.0000
v  173.5071 208.8713 -0.0000
v  4.2833 204.8519 -0.0000
v  109.9812 -54.5058 0.0000
v  51.1374 -86.1409 0.0000
v  93.3792 -118.0582 0.0000
v  146.5688 -81.3313 0.0000
v  21.3283 -136.5356 0.0000
v  52.0437 -158.0242 0.0000
v  235.3918 -43.6224 0.0000
v  279.2741 62.6776 -0.0000
v  305.2425 129.7446 -0.0000
v  9.0183 -91.8039 0.0000
v  -7.3690 -54.2235 0.0000
v  -19.0531 23.3318 -0.0000
v  -73.3937 -27.6803 0.0000
v  -15.6780 67.1529 -0.0000
v  -127.7448 22.8793 -0.0000
v  -26.1140 109.8366 -0.0000
v  -150.3937 101.1968 -0.0000
v  -214.8339 81.9372 -0.0000
v  -181.5683 -10.3715 0.0000
v  -173.5071 208.8713 -0.0000
v  -239.3748 169.3080 -0.0000
v  -4.2833 204.8519 -0.0000
v  -109.9812 -54.5058 0.0000
v  -146.5688 -81.3313 0.0000
v  -93.3792 -118.0582 0.0000
v  -51.1374 -86.1409 0.0000
v  -52.0437 -158.0242 0.0000
v  -21.3283 -136.5356 0.0000
v  -279.2741 62.6776 -0.0000
v  -235.3918 -43.6224 0.0000
v  -305.2425 129.7446 -0.0000
v  -9.0183 -91.8039 0.0000
# 45 vertices

vn 0.0000 0.0000 1.0000
# 1 vertex normals

vt 0.5121 0.3689 0.0000
vt 0.6202 0.4124 0.0000
vt 0.5312 0.4959 0.0000
vt 0.5000 0.4577 0.0000
vt 0.7093 0.4952 0.0000
vt 0.5257 0.5677 0.0000
vt 0.7464 0.6235 0.0000
vt 0.5428 0.6376 0.0000
vt 0.7974 0.4407 0.0000
vt 0.8519 0.5919 0.0000
vt 0.8921 0.7350 0.0000
vt 0.7842 0.7999 0.0000
vt 0.5070 0.7933 0.0000
vt 0.6802 0.3684 0.0000
vt 0.5838 0.3166 0.0000
vt 0.6530 0.2643 0.0000
vt 0.7401 0.3245 0.0000
vt 0.5349 0.2341 0.0000
vt 0.5852 0.1989 0.0000
vt 0.8856 0.3863 0.0000
vt 0.9575 0.5604 0.0000
vt 1.0000 0.6702 0.0000
vt 0.5148 0.3073 0.0000
vt 0.4879 0.3689 0.0000
vt 0.4688 0.4959 0.0000
vt 0.3798 0.4124 0.0000
vt 0.4743 0.5677 0.0000
vt 0.2907 0.4952 0.0000
vt 0.4572 0.6376 0.0000
vt 0.2536 0.6235 0.0000
vt 0.1481 0.5919 0.0000
vt 0.2026 0.4407 0.0000
vt 0.2158 0.7999 0.0000
vt 0.1079 0.7350 0.0000
vt 0.4930 0.7933 0.0000
vt 0.3198 0.3684 0.0000
vt 0.2599 0.3245 0.0000
vt 0.3470 0.2643 0.0000
vt 0.4162 0.3166 0.0000
vt 0.4148 0.1989 0.0000
vt 0.4651 0.2341 0.0000
vt 0.0425 0.5604 0.0000
vt 0.1144 0.3863 0.0000
vt 0.0000 0.6702 0.0000
vt 0.4852 0.3073 0.0000
# 45 texture coords

g Plane02
usemtl 01___Default
s 1
f 1/1/1 2/2/1 3/3/1 4/4/1 
s off
f 3/3/1 2/2/1 5/5/1 6/6/1 
f 6/6/1 5/5/1 7/7/1 8/8/1 
f 5/5/1 9/9/1 10/10/1 7/7/1 
f 7/7/1 10/10/1 11/11/1 12/12/1 
f 7/7/1 12/12/1 13/13/1 8/8/1 
f 5/5/1 2/2/1 14/14/1 9/9/1 
f 14/14/1 15/15/1 16/16/1 17/17/1 
f 15/15/1 18/18/1 19/19/1 16/16/1 
f 9/9/1 20/20/1 21/21/1 10/10/1 
f 10/10/1 21/21/1 22/22/1 11/11/1 
f 17/17/1 20/20/1 9/9/1 14/14/1 
f 2/2/1 1/1/1 15/15/1 14/14/1 
f 15/15/1 1/1/1 23/23/1 18/18/1 
s 1
f 24/24/1 4/4/1 25/25/1 26/26/1 
s off
f 25/25/1 27/27/1 28/28/1 26/26/1 
f 27/27/1 29/29/1 30/30/1 28/28/1 
f 28/28/1 30/30/1 31/31/1 32/32/1 
f 30/30/1 33/33/1 34/34/1 31/31/1 
f 30/30/1 29/29/1 35/35/1 33/33/1 
f 28/28/1 32/32/1 36/36/1 26/26/1 
f 36/36/1 37/37/1 38/38/1 39/39/1 
f 39/39/1 38/38/1 40/40/1 41/41/1 
f 32/32/1 31/31/1 42/42/1 43/43/1 
f 31/31/1 34/34/1 44/44/1 42/42/1 
f 37/37/1 36/36/1 32/32/1 43/43/1 
f 26/26/1 36/36/1 39/39/1 24/24/1 
f 39/39/1 41/41/1 45/45/1 24/24/1 
# 28 polygons

